<?xml version="1.0" standalone="no"?>
<!DOCTYPE svg PUBLIC "-//W3C//DTD SVG 20010904//EN"
 "http://www.w3.org/TR/2001/REC-SVG-20010904/DTD/svg10.dtd">
<svg version="1.0" xmlns="http://www.w3.org/2000/svg"
 width="180.000000pt" height="180.000000pt" viewBox="0 0 180.000000 180.000000"
 preserveAspectRatio="xMidYMid meet">
<metadata>
Created by potrace 1.14, written by Peter Selinger 2001-2017
</metadata>
<g transform="translate(0.000000,180.000000) scale(0.100000,-0.100000)"
fill="#000000" stroke="none">
<path d="M837 1474 c-1 -2 -18 -5 -38 -7 -19 -2 -39 -6 -45 -10 -6 -3 -25 -9
-42 -12 -32 -5 -102 -41 -157 -79 -55 -38 -97 -80 -139 -141 -74 -106 -104
-199 -104 -326 0 -310 251 -563 568 -573 58 -2 87 1 168 18 175 37 349 194
407 366 26 76 26 75 30 171 13 265 -170 506 -435 574 -55 14 -204 28 -213 19z
m170 -177 c4 -7 8 -101 9 -209 1 -207 -2 -224 -43 -216 -12 2 -22 18 -28 43
-24 96 -104 136 -188 93 -61 -30 -84 -106 -51 -169 31 -62 -16 -96 -55 -40
-42 59 -36 168 11 221 56 62 132 86 209 66 66 -18 74 -7 75 105 1 48 4 93 6
101 7 17 45 21 55 5z m136 -290 c53 -61 41 -184 -25 -243 -55 -50 -152 -72
-206 -46 -47 23 -58 4 -60 -105 -2 -77 -6 -101 -18 -110 -11 -8 -23 -9 -34 -3
-15 8 -17 32 -17 209 -1 210 3 227 44 219 11 -2 20 -17 25 -43 25 -126 196
-153 244 -38 19 44 18 72 -5 114 -30 56 10 93 52 46z"/>
</g>
</svg>
