<?xml version="1.0" encoding="utf-8"?>
<!-- Generator: Adobe Illustrator 23.0.1, SVG Export Plug-In . SVG Version: 6.00 Build 0)  -->
<svg version="1.1" id="Capa_1" xmlns="http://www.w3.org/2000/svg" xmlns:xlink="http://www.w3.org/1999/xlink" x="0px" y="0px"
	 viewBox="0 0 169.3 37.1" style="enable-background:new 0 0 169.3 37.1;" xml:space="preserve">
<style type="text/css">
	.st0{fill:#BEF500;}
</style>
<g>
	<g id="Group_209" transform="translate(-991 -176.897)">
		<path id="Subtraction_2" class="st0" d="M1013,196h-3.2c2.2,0,4-1.8,4-4v-10.9c0-2.2-1.8-4-4-4h3.2c1.7,0,3.1,1.4,3.1,3.1v12.6
			C1016.1,194.6,1014.7,196,1013,196z M997.2,196h-3.1c-1.7,0-3.1-1.4-3.1-3.2v-12.6c0-1.7,1.4-3.1,3.1-3.1h3.2c-2.2,0-4,1.8-4,4
			V192C993.4,194.2,995.1,195.9,997.2,196z"/>
		<path id="Rectangle_41" class="st0" d="M1001.7,178.7h3.8c2.2,0,4,1.8,4,4v7.8c0,2.2-1.8,4-4,4h-3.8c-2.2,0-4-1.8-4-4v-7.8
			C997.7,180.5,999.5,178.7,1001.7,178.7z"/>
	</g>
	<path id="Path_244" class="st0" d="M50.4,18.9h-3.9v-8h-7.3v8h-3.9V0.4h3.9v7.2h7.3V0.4h3.9V18.9z M55.3,18.9V0.4h3.9v18.5H55.3z
		 M75,13.7c0.1,1.5-0.6,3-1.8,3.9c-1.5,1-3.2,1.5-5,1.4c-1.8,0-3.6-0.3-5.2-1.1v-3.6c1,0.5,2.1,0.9,3.2,1.2c0.8,0.2,1.6,0.3,2.4,0.3
		c0.7,0,1.4-0.1,2-0.5c0.5-0.3,0.7-0.9,0.7-1.5c0-0.3-0.1-0.7-0.3-1c-0.2-0.3-0.5-0.6-0.9-0.8c-0.8-0.5-1.6-0.9-2.4-1.2
		c-0.9-0.4-1.8-0.9-2.5-1.5c-0.6-0.5-1-1.1-1.4-1.7c-0.3-0.7-0.5-1.5-0.5-2.3c-0.1-1.5,0.5-2.9,1.7-3.9c1.3-1,2.9-1.5,4.6-1.4
		c0.9,0,1.8,0.1,2.7,0.3c0.9,0.2,1.8,0.6,2.7,1l-1.3,3c-0.9-0.2-1.7-0.4-2.5-0.7c-0.6-0.2-1.3-0.2-1.9-0.2s-1.2,0.1-1.7,0.5
		C67.2,4.2,67,4.7,67,5.3c0,0.3,0.1,0.6,0.2,0.9c0.2,0.3,0.5,0.6,0.8,0.7c0.8,0.5,1.6,0.9,2.5,1.3c1.4,0.6,2.6,1.4,3.5,2.5
		C74.7,11.6,75,12.6,75,13.7z M85.7,18.9h-3.9V3.7h-5V0.4h13.9v3.3h-5V18.9z M110.1,9.6c0,3.1-0.8,5.4-2.3,7
		c-1.7,1.7-4.1,2.6-6.5,2.5c-2.4,0.2-4.8-0.7-6.5-2.5c-1.5-1.6-2.3-4-2.3-7.1s0.8-5.4,2.3-7c1.7-1.7,4.1-2.6,6.5-2.4
		c2.4-0.2,4.8,0.7,6.5,2.4C109.3,4.2,110.1,6.5,110.1,9.6z M96.6,9.6c-0.1,1.6,0.3,3.3,1.2,4.7c0.8,1.1,2.2,1.7,3.5,1.6
		c3.1,0,4.7-2.1,4.7-6.2s-1.6-6.2-4.7-6.2c-1.4-0.1-2.7,0.5-3.5,1.6C96.9,6.3,96.5,8,96.6,9.6z M118.1,8.6h1.3
		c1,0.1,1.9-0.1,2.7-0.6c0.6-0.5,0.9-1.2,0.9-1.9c0.1-0.7-0.3-1.5-0.9-1.9c-0.9-0.4-1.8-0.6-2.8-0.6h-1.2V8.6z M118.1,11.8v7.1h-3.9
		V0.4h5.4c2.5,0,4.4,0.5,5.6,1.4c1.2,1,1.9,2.6,1.8,4.2c0,1-0.3,2.1-0.9,2.9c-0.6,0.9-1.5,1.6-2.5,2c2.8,4.1,4.6,6.8,5.4,8h-4.3
		l-4.4-7.1L118.1,11.8z M131.5,18.9V0.4h3.9v18.5H131.5z M151.6,18.9l-1.3-4.4h-6.7l-1.3,4.4H138l6.5-18.5h4.8l6.5,18.5H151.6z
		 M149.3,11.2c-1.2-4-1.9-6.2-2.1-6.8c-0.2-0.5-0.3-0.9-0.3-1.2c-0.3,1.1-1.1,3.7-2.4,8H149.3z M169.3,13.7c0.1,1.5-0.6,3-1.8,3.9
		c-1.5,1-3.2,1.5-5,1.4c-1.8,0-3.6-0.3-5.2-1.1v-3.6c1,0.5,2.1,0.9,3.2,1.2c0.8,0.2,1.6,0.3,2.4,0.3c0.7,0,1.4-0.1,2-0.5
		c0.5-0.3,0.7-0.9,0.7-1.5c0-0.3-0.1-0.7-0.3-1s-0.5-0.6-0.9-0.8c-0.8-0.5-1.6-0.9-2.4-1.2c-0.9-0.4-1.8-0.9-2.5-1.5
		c-0.6-0.5-1-1.1-1.4-1.7c-0.3-0.7-0.5-1.5-0.5-2.3c-0.1-1.5,0.5-2.9,1.7-3.9c1.3-1,2.9-1.5,4.6-1.4c0.9,0,1.8,0.1,2.7,0.3
		s1.8,0.6,2.7,1l-1.3,3c-0.8-0.3-1.6-0.6-2.4-0.8c-0.6-0.2-1.3-0.2-1.9-0.2c-0.6,0-1.2,0.1-1.7,0.5c-0.4,0.3-0.6,0.8-0.6,1.4
		c0,0.3,0.1,0.6,0.2,0.9c0.2,0.3,0.5,0.6,0.8,0.7c0.8,0.5,1.6,0.9,2.5,1.3c1.4,0.6,2.6,1.4,3.5,2.5C169,11.6,169.3,12.6,169.3,13.7
		L169.3,13.7z"/>
	<path class="st0" d="M110.3,32.2c0,2.1-0.5,3.8-1.2,4.1c-0.1,0-0.1,0.1-0.2,0.1c-0.8,0-1.4-1.9-1.4-4.2s0.6-4.2,1.4-4.2
		S110.3,29.9,110.3,32.2 M113.1,32.2c0-2.8-1.9-5-4.2-5s-4.2,2.2-4.2,5s1.9,5,4.2,5S113.1,35,113.1,32.2"/>
	<path class="st0" d="M99.6,32.1h1.5c0.6,0,1.1-0.9,1.1-1.8c0-0.8-0.6-1.7-1.3-1.7h-1.3L99.6,32.1L99.6,32.1z M99.6,33.5v3.6h-2.4
		v-9.9h4.4c1.6,0,2.6,1.5,2.6,3.3c0.1,1.5-1,2.8-2.4,3H99.6L99.6,33.5z"/>
	<polyline class="st0" points="90,37.1 88.5,37.1 88.5,27.2 90,27.2 92.4,32.1 94.2,27.2 96.5,27.2 96.5,37.1 94.1,37.1 94.1,31.9 
		92.2,37.1 91.9,37.1 90,32.2 90,37.1 	"/>
	<polyline class="st0" points="82.6,27.2 88,27.2 88,28.5 84.7,28.5 84.7,30.2 87.1,30.2 87.1,31.4 84.7,31.4 84.7,35.9 88,35.9 
		88,37.1 82.6,37.1 82.6,27.2 	"/>
	<rect x="79.4" y="27.2" class="st0" width="2.1" height="9.9"/>
	<polyline class="st0" points="71.8,27.2 78.5,27.2 78.5,28.6 76.4,28.6 76.4,37.1 74.1,37.1 74.1,28.5 71.8,28.5 71.8,27.2 	"/>
	<polyline class="st0" points="64.3,27.2 66.5,27.2 66.5,35.9 69.6,35.9 69.6,37.1 64.3,37.1 64.3,27.2 	"/>
	<polyline class="st0" points="57.7,27.2 63,27.2 63,28.5 59.9,28.5 59.9,30.2 62.2,30.2 62.2,31.4 59.9,31.4 59.9,35.9 63,35.9 
		63,37.1 57.7,37.1 57.7,27.2 	"/>
</g>
</svg>
